# Blender v2.79 (sub 0) OBJ File: ''
# www.blender.org
o Player3
v -0.090454 -0.243234 1.208790
v -1.132304 -0.047419 1.310546
v -1.091743 -0.281086 -0.645414
v -0.092150 -0.408884 -0.869828
v 0.954016 0.821177 1.143758
v 0.910157 0.698778 -0.833202
v 0.739923 0.726451 -0.673787
v 0.776253 0.799152 0.971774
v -0.086878 0.798896 3.401189
v -0.086635 1.049456 2.982866
v -0.335530 1.026353 2.936627
v -0.542183 0.769525 3.241565
v -1.857496 0.397846 1.266954
v -1.130614 0.825470 1.145116
v -1.089838 0.702897 -0.831898
v -2.933700 0.378376 -0.900868
v -1.090901 0.509597 -1.851856
v -4.998256 0.189327 -1.919480
v 1.679289 0.390562 1.264648
v 0.952326 -0.051712 1.309187
v 0.908253 -0.285205 -0.646718
v 2.752575 0.366665 -0.904575
v 0.162103 1.025329 2.936304
v 0.368093 0.767651 3.240972
v 0.160926 0.417138 3.051568
v 0.907189 -0.478505 -1.666675
v 0.583483 -0.401194 -1.531291
v 0.584202 -0.270515 -0.841752
v -0.093213 -0.602184 -1.889786
v -1.092806 -0.474386 -1.665372
v -0.336708 0.418162 3.051892
v -0.087868 0.412650 3.103553
v -0.088009 0.960275 1.157255
v -0.087625 1.220133 0.925057
v -0.089584 0.846714 -0.901118
v -0.919283 0.729869 -0.672705
v -0.953167 0.802714 0.972901
v -0.090452 0.467949 -1.036005
v -0.441292 0.034406 -1.869309
v -1.806530 -0.077498 -1.892937
v -0.092695 -0.258859 -2.180127
v 4.815006 0.169116 -1.925878
v -0.092262 -0.102792 -2.008892
v -0.091110 0.650746 -2.621131
v -0.765827 0.474830 -2.527537
v -0.768607 -0.398410 -1.530410
v -3.409365 -0.203762 -1.654051
v 0.909094 0.505478 -1.853160
v 0.582743 0.425558 -2.773743
v 0.582999 0.472052 -2.528416
v -0.091365 0.604252 -2.866458
v -0.766083 0.428336 -2.772864
v -0.091516 0.274650 -2.055963
v 0.257511 0.032966 -1.869764
v 1.622245 -0.084559 -1.895173
v 1.621795 -0.166394 -2.326980
v 0.257061 -0.048868 -2.301571
v -1.807225 -0.436264 -1.824944
v -0.092957 -0.461559 -1.940899
v -0.091850 0.083617 -1.965509
v -0.092712 -0.184627 -2.440699
v -0.092300 0.001782 -2.397316
v -1.806980 -0.159332 -2.324744
v -0.441742 -0.047429 -2.301116
v -0.093407 -0.543394 -2.372705
v -1.807675 -0.518099 -2.256751
v 1.621550 -0.443326 -1.827179
v 1.621100 -0.525161 -2.258986
v 1.830558 -0.083873 -0.967928
v 0.583445 -0.661496 -0.767654
v 1.829801 -0.474854 -0.893829
v -0.769364 -0.789391 -1.456311
v -3.410122 -0.594743 -1.579953
v 3.224857 -0.217426 -1.658376
v -2.013629 -0.075956 -0.965422
v -0.767888 -0.267730 -0.840871
v -0.768645 -0.658711 -0.766773
v -2.014386 -0.466937 -0.891323
v 0.582726 -0.792175 -1.457193
v 3.224100 -0.608407 -1.584278
v -2.361944 -0.248784 0.256209
v -3.059520 -0.259475 0.192675
v 2.877950 0.119279 0.114706
v 2.877193 -0.271702 0.188804
v -2.361187 0.142197 0.182111
v -3.058763 0.131506 0.118576
v 2.180508 0.132843 0.179150
v 2.179751 -0.258138 0.253249
vn -0.1728 -0.9784 0.1133
vn -0.1089 -0.9909 0.0791
vn 0.1017 0.9928 -0.0637
vn -0.0826 0.9957 -0.0422
vn -0.1725 0.8451 0.5061
vn -0.2373 0.8163 0.5267
vn -0.5139 0.8555 -0.0636
vn -0.1756 0.9813 0.0784
vn -0.1637 0.9693 -0.1835
vn -0.0813 0.9965 -0.0201
vn 0.5217 -0.8484 0.0895
vn 0.3503 -0.9185 0.1834
vn 0.4699 0.8541 0.2231
vn 0.1746 0.9825 -0.0647
vn 0.5930 0.7663 0.2472
vn 0.4921 0.8623 0.1192
vn 0.6359 -0.6224 0.4563
vn 0.4815 -0.7450 0.4616
vn 0.1548 0.9706 -0.1841
vn 0.0797 -0.9794 0.1855
vn -0.0835 -0.9791 0.1856
vn -0.5162 -0.8149 0.2636
vn -0.3480 -0.9317 0.1041
vn -0.5922 -0.6225 0.5116
vn -0.4916 -0.7587 0.4274
vn -0.6352 0.7465 0.1982
vn -0.4809 0.8624 0.1580
vn -0.2320 -0.5934 0.7708
vn -0.1817 -0.5473 0.8170
vn 0.2387 -0.5671 0.7883
vn 0.1738 -0.6014 0.7798
vn 0.1832 0.8082 0.5597
vn 0.2333 0.8342 0.4998
vn -0.1275 0.9907 -0.0483
vn -0.0780 0.9940 -0.0768
vn 0.1314 0.9898 -0.0547
vn 0.0874 0.9950 -0.0487
vn 0.1248 0.9597 -0.2519
vn 0.2734 0.6407 0.7175
vn 0.1728 -0.9819 0.0781
vn 0.0964 -0.9886 0.1158
vn 0.0851 -0.9416 0.3258
vn 0.1418 -0.9379 0.3167
vn -0.0818 -0.9529 0.2921
vn -0.1441 -0.9351 0.3239
vn -0.1896 0.9620 -0.1965
vn -0.4361 0.8986 -0.0488
vn 0.1559 0.9866 -0.0470
vn 0.4387 0.8803 -0.1805
vn 0.0692 0.9958 -0.0603
vn -0.1138 0.9924 -0.0463
vn 0.1536 0.9339 -0.3228
vn -0.2931 0.3213 -0.9004
vn 0.1129 0.3331 -0.9361
vn 0.1473 0.9890 -0.0144
vn -0.0944 0.6634 0.7423
vn -0.3965 0.7637 -0.5094
vn 0.0128 0.0542 -0.9984
vn 0.0954 -0.6429 -0.7600
vn 0.1526 -0.9780 -0.1423
vn -0.1049 -0.8282 -0.5506
vn -0.2462 -0.6256 -0.7403
vn 0.0837 0.9886 -0.1249
vn -0.0346 0.7387 -0.6732
vn -0.0321 0.7387 -0.6732
vn -0.0320 0.7387 -0.6732
vn 0.2488 0.9622 0.1109
vn 0.2422 0.9639 0.1111
vn 0.2473 0.9626 0.1109
vn -0.2714 0.9457 -0.1790
vn -0.2711 0.9458 -0.1790
vn -0.2712 0.9457 -0.1790
vn -0.1585 -0.6475 0.7454
vn -0.0035 -0.5692 -0.8222
vn 0.2745 0.9447 -0.1793
vn 0.2747 0.9447 -0.1793
vn 0.1812 0.9670 0.1790
vn 0.0809 0.9793 -0.1857
vn -0.2714 0.9457 -0.1789
vn -0.2713 0.9457 -0.1789
vn 0.2750 0.9446 -0.1793
vn 0.2786 -0.8897 -0.3618
vn -0.2751 -0.9445 0.1795
vn -0.2064 0.9743 -0.0905
vn 0.2403 0.9643 0.1111
vn -0.2278 -0.9737 0.0056
vn 0.1860 -0.9102 -0.3701
vn -0.2708 0.9458 -0.1790
vn 0.0690 0.1856 0.9802
vn -0.0139 0.0543 -0.9984
vn 0.2594 -0.3258 -0.9092
vn 0.1825 -0.4210 -0.8885
vn -0.2742 -0.4112 -0.8693
vn -0.2206 -0.2671 -0.9381
vn -0.0295 0.7388 -0.6733
vn -0.0523 0.7400 0.6706
vn 0.2871 0.2165 -0.9331
vn 0.0428 0.6592 -0.7508
vn -0.0835 0.9769 0.1965
vn -0.0624 0.2264 -0.9720
vn 0.1900 0.9646 -0.1830
vn -0.1863 0.9654 -0.1828
vn -0.0690 -0.1856 -0.9802
vn -0.0771 0.9796 -0.1856
vn -0.0019 -0.9825 0.1862
vn -1.0000 0.0021 0.0007
vn 1.0000 -0.0021 -0.0007
vn 0.0670 -0.1859 -0.9803
vn -0.0670 0.1859 0.9803
vn 0.0714 0.1856 0.9800
vn 0.0323 -0.1862 -0.9820
vn 0.2784 -0.6669 0.6912
vn 0.0915 -0.7931 -0.6022
vn 0.0840 -0.7655 0.6379
vn -0.3517 -0.7848 0.5102
vn -0.1207 -0.9566 -0.2654
vn -0.1511 0.9713 -0.1839
vn 0.2380 -0.8554 -0.4599
vn 0.1557 -0.4428 0.8830
vn -0.2802 -0.6658 0.6915
vn -0.1805 -0.8344 0.5207
vn -0.0809 -0.9793 0.1857
vn 0.1637 -0.9693 0.1835
vn 0.0817 -0.9348 0.3457
vn -0.0343 -0.1860 -0.9819
vn -0.0694 0.1859 0.9801
vn 0.9820 0.0333 0.1858
vn -0.0919 0.1856 0.9783
vn 0.0940 0.1852 0.9782
vn 0.9585 0.0513 0.2805
vn -0.9816 0.0374 0.1871
vn 0.0019 0.9825 -0.1862
vn -0.9579 0.0553 0.2818
s 1
f 1//1 2//1 3//1
f 3//2 4//2 1//2
f 5//3 6//3 7//3
f 7//4 8//4 5//4
f 9//5 10//5 11//5
f 11//6 12//6 9//6
f 13//7 14//7 15//7
f 15//8 16//8 13//8
f 16//9 15//9 17//9
f 17//10 18//10 16//10
f 19//11 20//11 21//11
f 21//12 22//12 19//12
f 5//13 19//13 22//13
f 22//14 6//14 5//14
f 23//15 24//15 19//15
f 19//16 5//16 23//16
f 24//17 25//17 20//17
f 20//18 19//18 24//18
f 21//19 26//19 27//19
f 27//19 28//19 21//19
f 21//20 4//20 29//20
f 29//20 26//20 21//20
f 4//21 3//21 30//21
f 30//21 29//21 4//21
f 2//22 13//22 16//22
f 16//23 3//23 2//23
f 31//24 12//24 13//24
f 13//25 2//25 31//25
f 12//26 11//26 14//26
f 14//27 13//27 12//27
f 32//28 9//28 12//28
f 12//29 31//29 32//29
f 25//30 24//30 9//30
f 9//31 32//31 25//31
f 24//32 23//32 10//32
f 10//33 9//33 24//33
f 10//34 33//34 14//34
f 14//35 11//35 10//35
f 23//36 5//36 33//36
f 33//37 10//37 23//37
f 33//38 5//38 8//38
f 8//39 34//39 33//39
f 20//40 1//40 4//40
f 4//41 21//41 20//41
f 25//42 32//42 1//42
f 1//43 20//43 25//43
f 32//44 31//44 2//44
f 2//45 1//45 32//45
f 34//46 35//46 36//46
f 36//47 37//47 34//47
f 8//48 7//48 35//48
f 35//49 34//49 8//49
f 15//50 14//50 37//50
f 37//51 36//51 15//51
f 38//52 15//52 36//52
f 36//53 35//53 38//53
f 6//54 38//54 35//54
f 35//55 7//55 6//55
f 14//56 33//56 34//56
f 34//57 37//57 14//57
f 18//58 17//58 39//58
f 39//58 40//58 18//58
f 29//59 41//59 42//59
f 42//60 26//60 29//60
f 30//61 18//61 41//61
f 41//62 29//62 30//62
f 41//63 18//63 40//63
f 40//64 43//65 41//66
f 15//67 38//68 44//69
f 44//70 45//71 15//72
f 18//73 30//73 46//73
f 46//74 47//74 18//74
f 6//75 48//75 49//75
f 49//75 50//76 6//75
f 6//77 22//77 42//77
f 42//78 48//78 6//78
f 45//71 44//70 51//79
f 51//79 52//80 45//71
f 44//81 50//76 49//75
f 49//75 51//81 44//81
f 48//82 53//82 51//82
f 51//83 49//83 48//83
f 38//84 6//84 50//84
f 50//85 44//69 38//68
f 53//86 17//86 52//86
f 52//87 51//87 53//87
f 17//88 15//72 45//71
f 45//71 52//80 17//88
f 54//78 55//78 56//78
f 56//78 57//78 54//78
f 43//89 40//89 58//89
f 58//89 59//89 43//89
f 48//90 42//90 55//90
f 55//90 54//90 48//90
f 53//91 48//91 54//91
f 54//92 60//92 53//92
f 17//93 53//93 60//93
f 60//94 39//94 17//94
f 42//95 41//66 43//65
f 43//96 55//96 42//96
f 61//97 62//97 57//97
f 57//98 56//98 61//98
f 63//99 64//99 62//99
f 62//100 61//100 63//100
f 60//101 54//101 57//101
f 57//101 62//101 60//101
f 39//102 60//102 62//102
f 62//102 64//102 39//102
f 63//103 61//103 65//103
f 65//103 66//103 63//103
f 40//104 39//104 64//104
f 64//104 63//104 40//104
f 59//105 58//105 66//105
f 66//105 65//105 59//105
f 67//105 59//105 65//105
f 65//105 68//105 67//105
f 40//106 63//106 66//106
f 66//106 58//106 40//106
f 56//107 55//107 67//107
f 67//107 68//107 56//107
f 61//108 56//108 68//108
f 68//108 65//108 61//108
f 55//109 43//109 59//109
f 59//109 67//109 55//109
f 69//110 28//110 70//110
f 70//110 71//110 69//110
f 47//111 46//111 72//111
f 72//111 73//111 47//111
f 42//112 22//112 69//112
f 69//112 74//112 42//112
f 26//113 42//113 74//113
f 74//114 27//114 26//114
f 3//115 16//115 75//115
f 75//116 76//116 3//116
f 30//117 3//117 76//117
f 76//117 46//117 30//117
f 22//118 21//118 28//118
f 28//119 69//119 22//119
f 16//120 18//120 47//120
f 47//120 75//120 16//120
f 77//121 78//121 73//121
f 73//122 72//122 77//122
f 71//123 70//123 79//123
f 79//124 80//124 71//124
f 27//125 74//125 80//125
f 80//125 79//125 27//125
f 28//106 27//106 79//106
f 79//106 70//106 28//106
f 46//107 76//107 77//107
f 77//107 72//107 46//107
f 76//126 75//126 78//126
f 78//126 77//126 76//126
f 73//105 78//105 81//105
f 81//105 82//105 73//105
f 80//127 74//127 83//127
f 83//127 84//127 80//127
f 85//128 86//128 82//128
f 82//128 81//128 85//128
f 83//129 87//129 88//129
f 88//129 84//129 83//129
f 78//130 75//130 85//130
f 85//130 81//130 78//130
f 71//105 80//105 84//105
f 84//105 88//105 71//105
f 47//131 73//131 82//131
f 82//131 86//131 47//131
f 75//132 47//132 86//132
f 86//132 85//132 75//132
f 69//133 71//133 88//133
f 88//133 87//133 69//133
f 74//132 69//132 87//132
f 87//132 83//132 74//132
